<svg xmlns="http://www.w3.org/2000/svg" xmlns:xlink="http://www.w3.org/1999/xlink" width="340" zoomAndPan="magnify" viewBox="0 0 255 50.249999" height="67" preserveAspectRatio="xMidYMid meet" version="1.0"><defs><g/><clipPath id="32c1ff37f5"><path d="M 25 1 L 218 1 L 218 49.511719 L 25 49.511719 Z M 25 1 " clip-rule="nonzero"/></clipPath><clipPath id="1279ccb7e8"><path d="M 0.285156 11 L 22 11 L 22 48.511719 L 0.285156 48.511719 Z M 0.285156 11 " clip-rule="nonzero"/></clipPath><clipPath id="321abe5e0a"><path d="M 12 27 L 49.707031 27 L 49.707031 47 L 12 47 Z M 12 27 " clip-rule="nonzero"/></clipPath><clipPath id="8ce79ea465"><rect x="0" width="193" y="0" height="49"/></clipPath></defs><g clip-path="url(#32c1ff37f5)"><g transform="matrix(1, 0, 0, 1, 25, 1)"><g clip-path="url(#8ce79ea465)"><path fill="#7e8ede" d="M 35.59375 19.195312 C 23.820312 22.355469 20.949219 4.453125 11.375 3.398438 C 19.320312 -1.003906 28.226562 1.484375 32.148438 4.546875 C 37.125 8.378906 38.277344 12.398438 37.890625 16.613281 C 34.828125 11.058594 32.339844 7.707031 24.296875 4.644531 C 30.710938 7.324219 35.691406 14.890625 37.03125 18.527344 C 38.179688 21.496094 40.1875 29.152344 38.082031 30.589844 C 35.878906 31.929688 34.253906 29.917969 35.113281 28.003906 C 36.839844 23.980469 36.359375 21.207031 35.59375 19.195312 Z M 35.59375 19.195312 " fill-opacity="1" fill-rule="evenodd"/><g clip-path="url(#1279ccb7e8)"><path fill="#516af0" d="M 11.46875 19.675781 C 20.085938 28.195312 6.011719 39.777344 9.84375 48.488281 C 2.183594 43.894531 -0.113281 34.894531 0.558594 29.917969 C 1.417969 23.789062 4.289062 20.726562 8.121094 19.003906 C 4.769531 24.460938 3.140625 28.289062 4.578125 36.808594 C 3.621094 29.820312 7.738281 21.777344 10.226562 18.714844 C 12.140625 16.226562 17.789062 10.675781 20.085938 11.824219 C 22.382812 13.066406 21.425781 15.460938 19.414062 15.652344 C 15.011719 16.226562 12.90625 18.046875 11.46875 19.675781 Z M 11.46875 19.675781 " fill-opacity="1" fill-rule="evenodd"/></g><g clip-path="url(#321abe5e0a)"><path fill="#516af0" d="M 23.914062 40.351562 C 27.074219 28.578125 44.113281 34.988281 49.765625 27.332031 C 49.574219 36.234375 42.96875 42.839844 38.371094 44.660156 C 32.53125 47.054688 28.511719 46 25.066406 43.507812 C 31.382812 43.699219 35.59375 43.222656 42.203125 37.765625 C 36.648438 42.074219 27.648438 42.554688 23.820312 41.882812 C 20.660156 41.402344 13 39.296875 12.90625 36.710938 C 12.714844 34.222656 15.300781 33.839844 16.542969 35.46875 C 19.222656 39.011719 21.808594 39.96875 23.914062 40.351562 Z M 23.914062 40.351562 " fill-opacity="1" fill-rule="evenodd"/></g><g fill="#000000" fill-opacity="1"><g transform="translate(56.525755, 35.35192)"><g><path d="M 3.359375 0 L 3.359375 -24.421875 L 20.1875 -24.421875 C 23.976562 -24.421875 26.867188 -23.703125 28.859375 -22.265625 C 30.859375 -20.835938 31.859375 -18.796875 31.859375 -16.140625 C 31.859375 -13.484375 30.867188 -11.359375 28.890625 -9.765625 C 26.921875 -8.179688 24.03125 -7.390625 20.21875 -7.390625 L 9.625 -7.390625 L 9.625 0 Z M 9.625 -11.96875 L 20.421875 -11.96875 C 22.210938 -11.96875 23.507812 -12.347656 24.3125 -13.109375 C 25.113281 -13.878906 25.515625 -14.859375 25.515625 -16.046875 C 25.515625 -17.078125 25.113281 -17.96875 24.3125 -18.71875 C 23.507812 -19.476562 22.195312 -19.859375 20.375 -19.859375 L 9.625 -19.859375 Z M 9.625 -11.96875 "/></g></g></g><g fill="#000000" fill-opacity="1"><g transform="translate(87.850153, 35.35192)"><g><path d="M 27.484375 0 L 27.484375 -10.453125 L 9.625 -10.453125 L 9.625 0 L 3.359375 0 L 3.359375 -24.421875 L 9.625 -24.421875 L 9.625 -15.0625 L 27.484375 -15.0625 L 27.484375 -24.421875 L 33.765625 -24.421875 L 33.765625 0 Z M 27.484375 0 "/></g></g></g><g fill="#000000" fill-opacity="1"><g transform="translate(123.710612, 35.35192)"><g><path d="M 3.359375 0 L 3.359375 -24.421875 L 29 -24.421875 L 29 -19.859375 L 9.625 -19.859375 L 9.625 -14.65625 L 27.609375 -14.65625 L 27.609375 -10.453125 L 9.625 -10.453125 L 9.625 -4.5625 L 29.265625 -4.5625 L 29.265625 0 Z M 3.359375 0 "/></g></g></g><g fill="#000000" fill-opacity="1"><g transform="translate(152.964205, 35.35192)"><g><path d="M 3.359375 0 L 3.359375 -24.421875 L 9.625 -24.421875 L 9.625 -4.5625 L 26.859375 -4.5625 L 26.859375 0 Z M 3.359375 0 "/></g></g></g><g fill="#000000" fill-opacity="1"><g transform="translate(179.653939, 35.35192)"><g><path d="M 3.359375 0 L 3.359375 -24.421875 L 9.625 -24.421875 L 9.625 0 Z M 3.359375 0 "/></g></g></g></g></g></g></svg>