<svg xmlns="http://www.w3.org/2000/svg" xmlns:xlink="http://www.w3.org/1999/xlink" width="340" zoomAndPan="magnify" viewBox="0 0 255 60" height="80" preserveAspectRatio="xMidYMid meet" version="1.0"><defs><g/><clipPath id="c74a873689"><path d="M 13 0.398438 L 48 0.398438 L 48 37 L 13 37 Z M 13 0.398438 " clip-rule="nonzero"/></clipPath><clipPath id="f9770f1bb7"><path d="M 0.28125 13 L 27 13 L 27 58 L 0.28125 58 Z M 0.28125 13 " clip-rule="nonzero"/></clipPath><clipPath id="2c2e2ff516"><path d="M 15 32 L 60.339844 32 L 60.339844 55 L 15 55 Z M 15 32 " clip-rule="nonzero"/></clipPath><clipPath id="75e7f1557d"><rect x="0" width="233" y="0" height="58"/></clipPath></defs><g transform="matrix(1, 0, 0, 1, 11, 2)"><g clip-path="url(#75e7f1557d)"><g clip-path="url(#c74a873689)"><path fill="#7e8ede" d="M 43.238281 22.472656 C 28.96875 26.304688 25.488281 4.609375 13.886719 3.332031 C 23.515625 -2.003906 34.304688 1.011719 39.058594 4.722656 C 45.09375 9.363281 46.484375 14.238281 46.019531 19.34375 C 42.308594 12.613281 39.292969 8.554688 29.546875 4.839844 C 37.320312 8.089844 43.351562 17.253906 44.976562 21.664062 C 46.367188 25.261719 48.800781 34.542969 46.25 36.28125 C 43.582031 37.90625 41.609375 35.46875 42.65625 33.148438 C 44.746094 28.273438 44.164062 24.910156 43.238281 22.472656 Z M 43.238281 22.472656 " fill-opacity="1" fill-rule="evenodd"/></g><g clip-path="url(#f9770f1bb7)"><path fill="#516af0" d="M 14 23.054688 C 24.441406 33.378906 7.386719 47.417969 12.03125 57.976562 C 2.746094 52.40625 -0.0351562 41.5 0.773438 35.464844 C 1.820312 28.042969 5.300781 24.328125 9.941406 22.242188 C 5.878906 28.851562 3.90625 33.496094 5.648438 43.820312 C 4.488281 35.351562 9.476562 25.605469 12.492188 21.894531 C 14.8125 18.875 21.65625 12.148438 24.441406 13.539062 C 27.226562 15.046875 26.066406 17.949219 23.628906 18.179688 C 18.292969 18.878906 15.742188 21.082031 14 23.054688 Z M 14 23.054688 " fill-opacity="1" fill-rule="evenodd"/></g><g clip-path="url(#2c2e2ff516)"><path fill="#516af0" d="M 29.082031 48.113281 C 32.910156 33.84375 53.5625 41.613281 60.40625 32.332031 C 60.175781 43.121094 52.171875 51.128906 46.601562 53.332031 C 39.523438 56.234375 34.652344 54.957031 30.476562 51.9375 C 38.132812 52.171875 43.238281 51.589844 51.242188 44.980469 C 44.511719 50.199219 33.609375 50.78125 28.96875 49.96875 C 25.140625 49.386719 15.855469 46.835938 15.742188 43.703125 C 15.507812 40.683594 18.640625 40.222656 20.148438 42.195312 C 23.398438 46.488281 26.53125 47.648438 29.082031 48.113281 Z M 29.082031 48.113281 " fill-opacity="1" fill-rule="evenodd"/></g><g fill="#000000" fill-opacity="1"><g transform="translate(68.601443, 42.053121)"><g><path d="M 4.0625 0 L 4.0625 -29.609375 L 24.46875 -29.609375 C 29.0625 -29.609375 32.566406 -28.738281 34.984375 -27 C 37.398438 -25.257812 38.609375 -22.78125 38.609375 -19.5625 C 38.609375 -16.351562 37.410156 -13.785156 35.015625 -11.859375 C 32.628906 -9.929688 29.125 -8.96875 24.5 -8.96875 L 11.671875 -8.96875 L 11.671875 0 Z M 11.671875 -14.5 L 24.75 -14.5 C 26.925781 -14.5 28.5 -14.960938 29.46875 -15.890625 C 30.4375 -16.828125 30.921875 -18.007812 30.921875 -19.4375 C 30.921875 -20.6875 30.4375 -21.769531 29.46875 -22.6875 C 28.5 -23.601562 26.910156 -24.0625 24.703125 -24.0625 L 11.671875 -24.0625 Z M 11.671875 -14.5 "/></g></g></g><g fill="#000000" fill-opacity="1"><g transform="translate(106.561953, 42.053121)"><g><path d="M 33.3125 0 L 33.3125 -12.671875 L 11.671875 -12.671875 L 11.671875 0 L 4.0625 0 L 4.0625 -29.609375 L 11.671875 -29.609375 L 11.671875 -18.25 L 33.3125 -18.25 L 33.3125 -29.609375 L 40.921875 -29.609375 L 40.921875 0 Z M 33.3125 0 "/></g></g></g><g fill="#000000" fill-opacity="1"><g transform="translate(150.019494, 42.053121)"><g><path d="M 4.0625 0 L 4.0625 -29.609375 L 35.140625 -29.609375 L 35.140625 -24.0625 L 11.671875 -24.0625 L 11.671875 -17.765625 L 33.46875 -17.765625 L 33.46875 -12.671875 L 11.671875 -12.671875 L 11.671875 -5.53125 L 35.46875 -5.53125 L 35.46875 0 Z M 4.0625 0 "/></g></g></g><g fill="#000000" fill-opacity="1"><g transform="translate(185.470496, 42.053121)"><g><path d="M 4.0625 0 L 4.0625 -29.609375 L 11.671875 -29.609375 L 11.671875 -5.53125 L 32.546875 -5.53125 L 32.546875 0 Z M 4.0625 0 "/></g></g></g><g fill="#000000" fill-opacity="1"><g transform="translate(217.814483, 42.053121)"><g><path d="M 4.0625 0 L 4.0625 -29.609375 L 11.671875 -29.609375 L 11.671875 0 Z M 4.0625 0 "/></g></g></g></g></g></svg>